PathFileType	4	(X/Y/Z)	Walk2.trc
DataRate	CameraRate	NumFrames	NumMarkers	Units	OrigDataRate	OrigDataStartFrame	OrigNumFrames
200.000000	200.000000	5	61	mm	200.000000	285	591
Frame#	Times		LFHD		RFHD		CLAV		STRN		LASI		RASI		RACR1		RUA1		RElbow		RFA1		RWRR		RWRU		RCAR		LACR1		LUA1		LElbow		LFA1		LWRR		RTH3		RTH2		RTB1		RTB3		RTB2		RTB4		LTH1		LTH3		LLFC		LMFC		LTB1		LTB2		LMT1		LWRU		LCAR		LTB3		RMFC		LTB4		RMMAL		LTH4		LTH2		RToe		RElbowM		RMT1		RLFC		RTH4		RTH1		LBHD		RCAL		RLMAL		LToe		RBack		RMT5		LMT5		RPSI		LLMAL		C7		LPSI		LMMAL		T10		LCAL		RBHD		LElbowM
			X1	Y1	Z1	X2	Y2	Z2	X3	Y3	Z3	X4	Y4	Z4	X5	Y5	Z5	X6	Y6	Z6	X7	Y7	Z7	X8	Y8	Z8	X9	Y9	Z9	X10	Y10	Z10	X11	Y11	Z11	X12	Y12	Z12	X13	Y13	Z13	X14	Y14	Z14	X15	Y15	Z15	X16	Y16	Z16	X17	Y17	Z17	X18	Y18	Z18	X19	Y19	Z19	X20	Y20	Z20	X21	Y21	Z21	X22	Y22	Z22	X23	Y23	Z23	X24	Y24	Z24	X25	Y25	Z25	X26	Y26	Z26	X27	Y27	Z27	X28	Y28	Z28	X29	Y29	Z29	X30	Y30	Z30	X31	Y31	Z31	X32	Y32	Z32	X33	Y33	Z33	X34	Y34	Z34	X35	Y35	Z35	X36	Y36	Z36	X37	Y37	Z37	X38	Y38	Z38	X39	Y39	Z39	X40	Y40	Z40	X41	Y41	Z41	X42	Y42	Z42	X43	Y43	Z43	X44	Y44	Z44	X45	Y45	Z45	X46	Y46	Z46	X47	Y47	Z47	X48	Y48	Z48	X49	Y49	Z49	X50	Y50	Z50	X51	Y51	Z51	X52	Y52	Z52	X53	Y53	Z53	X54	Y54	Z54	X55	Y55	Z55	X56	Y56	Z56	X57	Y57	Z57	X58	Y58	Z58	X59	Y59	Z59	X60	Y60	Z60	X61	Y61	Z61

285	1.425	-367.78	1646.8	-149.54	-371.8	1661.1	-51.024	-366.54	1398.9	-65.146	-298.51	1242.6	-49.699	-398.8	980.27	-226.75	-419.18	983.19	129.51	-493.99	1491.8	93.908	-518.33	1333.2	222.55	-502	1191.4	285.27	-446.24	1050.8	309.23	-398.36	937.99	245.73	-412.53	942.26	326.23	-360.23	867.34	299.47	-470.88	1450.1	-254.9	-518.27	1277.8	-333.46	-550.72	1116.4	-376.65	-535.65	976.6	-387.93	-482.08	853.28	-332.45	-490.1	592.55	177.04	-444.82	686.63	166.74	-543.2	362.12	99.244	-690.7	273.52	75.042	-632.59	330.74	144.98	-617.65	317.85	87.308	-418.22	762.06	-248.37	-372.98	599.33	-220.09	-373.86	514.93	-217.72	-358.79	511.7	-60.14	-300.83	397.59	-149.31	-333.5	305.86	-186.52	-254.47	37.588	-96.393	-534.85	836.65	-382.24	-476.79	767.32	-367.36	-321.83	230.19	-115.09	-492.4	478.92	18.284	-307.43	315.25	-130.54	-820.26	226.78	10.666	-396.96	681.33	-233.81	-341.82	698.91	-216.93	-788.34	47.174	72.569	-541.34	1108.7	192.83	-811.14	82.803	32.618	-514.23	490.68	173.44	-501.63	677.53	176.82	-514.89	763.47	176.58	-516.51	1566.6	-157.44	-902.33	281.52	42.464	-855.3	247.3	93.665	-203.09	35.938	-130.12	-633.69	1367.9	40.238	-854.68	108.65	113.82	-315.78	24.978	-178.04	-670.03	1018.3	-31.125	-415.94	74.107	-119.83	-561.24	1476.4	-82.246	-650.98	1028	-114.49	-392.81	83.88	-33.835	-624.82	1160.7	-61.394	-467.85	46.518	-64.842	-509.01	1591.4	-13.96	-609.46	1066.4	-276.74
286	1.43	-361.57	1648	-149.53	-365.59	1662.3	-51.017	-360.52	1400	-65.332	-292.63	1243.6	-50.137	-393.17	981.43	-227.39	-413.26	984.6	129.54	-487.99	1492.8	93.79	-512.94	1334.2	222.19	-496.93	1192.2	284.86	-441.87	1051.2	308.8	-394.54	938.14	245.38	-408.76	942.49	325.85	-356.79	867.32	299.15	-464.84	1451.5	-255.09	-511.36	1279	-333.91	-542.75	1117.4	-377.34	-526.48	977.76	-388.69	-471.53	855.05	-333.44	-478.34	594.42	177.39	-434.39	689.09	166.81	-529.24	364	99.58	-676.28	274.68	75.242	-618.44	332.03	145.32	-603.46	319.37	87.574	-414	762.49	-248.68	-370.15	599.39	-220.3	-371.69	514.94	-217.84	-356.83	511.59	-60.312	-299.34	397.18	-149.43	-332.41	305.57	-186.61	-254.45	37.604	-96.444	-524.29	837.84	-382.99	-465.13	769.38	-368.58	-321.09	229.89	-115.14	-479.73	480.78	18.784	-306.31	314.88	-130.63	-805.51	227.21	10.934	-393.43	681.64	-234.08	-338.13	698.69	-217.18	-771.16	48.68	73.496	-536.62	1109.7	192.3	-794.38	83.688	33.574	-501.1	492.53	173.94	-491.03	679.23	176.97	-505.48	764.98	176.52	-510.36	1567.9	-157.55	-888.36	281.01	42.595	-840.74	247.45	93.873	-203	35.711	-130.22	-627.74	1369	39.772	-838.27	109.43	114.73	-315.81	24.955	-178.09	-663.94	1019.4	-31.446	-415.82	74.179	-119.82	-555.17	1477.6	-82.389	-645.19	1029.3	-114.71	-392.67	83.896	-33.821	-618.79	1162	-61.846	-467.8	46.632	-64.795	-502.85	1592.6	-14.081	-601.2	1066.8	-277.49
287	1.435	-355.38	1649.3	-149.49	-359.4	1663.4	-50.962	-354.53	1401.1	-65.479	-286.76	1244.6	-50.541	-387.54	982.58	-228	-407.38	986.02	129.68	-482.04	1493.8	93.696	-507.55	1335.1	221.84	-491.9	1192.9	284.45	-437.53	1051.6	308.39	-390.74	938.28	245.07	-405.02	942.7	325.5	-353.37	867.29	298.88	-458.83	1452.8	-255.27	-504.48	1280.2	-334.36	-534.78	1118.5	-378.04	-517.28	978.94	-389.45	-460.97	856.86	-334.41	-466.66	596.4	177.71	-424.04	691.63	166.89	-515.23	365.9	99.934	-661.65	275.62	75.448	-604.22	333.25	145.65	-589.15	320.79	87.853	-409.83	762.91	-248.98	-367.38	599.45	-220.5	-369.57	514.94	-217.97	-354.92	511.48	-60.476	-297.9	396.77	-149.55	-331.35	305.29	-186.7	-254.43	37.617	-96.5	-513.7	839.06	-383.75	-453.46	771.49	-369.75	-320.37	229.59	-115.19	-467.12	482.7	19.267	-305.23	314.51	-130.72	-790.43	227.2	11.143	-389.95	681.95	-234.35	-334.5	698.45	-217.43	-753.35	50.021	74.486	-531.93	1110.6	191.79	-777.06	84.235	34.575	-488.08	494.47	174.4	-480.52	681.02	177.12	-496.15	766.55	176.46	-504.23	1569.3	-157.61	-874.17	279.94	42.582	-825.94	247.16	93.982	-202.92	35.485	-130.32	-621.83	1370.1	39.323	-821.38	109.8	115.61	-315.83	24.929	-178.14	-657.86	1020.5	-31.757	-415.69	74.255	-119.81	-549.14	1478.8	-82.501	-639.43	1030.6	-114.92	-392.53	83.917	-33.804	-612.78	1163.2	-62.295	-467.76	46.751	-64.745	-496.72	1593.8	-14.153	-592.96	1067.3	-278.27
288	1.44	-349.2	1650.5	-149.4	-353.24	1664.5	-50.862	-348.58	1402.1	-65.589	-280.9	1245.6	-50.909	-381.93	983.73	-228.59	-401.55	987.44	129.93	-476.14	1494.7	93.624	-502.16	1336	221.52	-486.89	1193.6	284.04	-433.23	1052	308	-386.95	938.39	244.79	-401.31	942.9	325.18	-349.97	867.26	298.65	-452.85	1454.1	-255.43	-497.64	1281.3	-334.8	-526.8	1119.5	-378.74	-508.06	980.15	-390.22	-450.4	858.7	-335.36	-455.07	598.46	178	-413.79	694.26	166.97	-501.18	367.8	100.31	-646.82	276.36	75.666	-589.95	334.4	145.96	-574.73	322.1	88.148	-405.7	763.32	-249.27	-364.66	599.51	-220.69	-367.51	514.94	-218.08	-353.04	511.38	-60.632	-296.5	396.38	-149.67	-330.34	305.02	-186.79	-254.4	37.627	-96.559	-503.07	840.33	-384.52	-441.79	773.64	-370.89	-319.68	229.31	-115.24	-454.58	484.68	19.733	-304.18	314.16	-130.81	-775.04	226.78	11.304	-386.52	682.25	-234.62	-330.92	698.21	-217.69	-734.93	51.194	75.541	-527.24	1111.5	191.29	-759.2	84.458	35.622	-475.16	496.47	174.81	-470.09	682.89	177.26	-486.9	768.2	176.4	-498.12	1570.6	-157.63	-859.77	278.31	42.443	-810.91	246.45	94.006	-202.84	35.259	-130.41	-615.93	1371.2	38.889	-804.03	109.78	116.48	-315.86	24.903	-178.19	-651.8	1021.5	-32.054	-415.56	74.335	-119.79	-543.13	1480	-82.588	-633.7	1031.8	-115.11	-392.38	83.942	-33.782	-606.79	1164.4	-62.742	-467.71	46.875	-64.692	-490.6	1595	-14.179	-584.72	1067.7	-279.07
289	1.445	-343.05	1651.7	-149.27	-347.1	1665.6	-50.715	-342.65	1403.2	-65.664	-275.04	1246.6	-51.243	-376.33	984.87	-229.16	-395.76	988.85	130.27	-470.28	1495.7	93.573	-496.78	1336.8	221.21	-481.91	1194.3	283.64	-428.96	1052.3	307.64	-383.17	938.5	244.55	-397.64	943.1	324.9	-346.59	867.22	298.47	-446.91	1455.5	-255.58	-490.82	1282.5	-335.22	-518.81	1120.5	-379.46	-498.81	981.38	-390.99	-439.83	860.59	-336.28	-443.57	600.61	178.28	-403.63	696.94	167.05	-487.11	369.7	100.69	-631.82	276.89	75.898	-575.64	335.46	146.27	-560.21	323.3	88.46	-401.61	763.71	-249.55	-361.98	599.56	-220.88	-365.49	514.95	-218.2	-351.2	511.28	-60.779	-295.14	396	-149.78	-329.35	304.75	-186.88	-254.38	37.635	-96.621	-492.41	841.63	-385.29	-430.12	775.82	-371.99	-319	229.04	-115.29	-442.11	486.73	20.177	-303.16	313.82	-130.9	-759.36	225.93	11.423	-383.14	682.55	-234.88	-327.38	697.96	-217.94	-715.94	52.204	76.657	-522.56	1112.4	190.8	-740.83	84.373	36.716	-462.36	498.54	175.19	-459.76	684.82	177.4	-477.74	769.89	176.35	-492.04	1572	-157.62	-845.15	276.14	42.197	-795.66	245.31	93.96	-202.76	35.031	-130.51	-610.06	1372.2	38.469	-786.23	109.38	117.35	-315.88	24.877	-178.25	-645.75	1022.6	-32.335	-415.44	74.42	-119.78	-537.15	1481.2	-82.654	-627.99	1033.1	-115.3	-392.24	83.971	-33.756	-600.81	1165.6	-63.186	-467.66	47.004	-64.638	-484.52	1596.2	-14.158	-576.49	1068.1	-279.89
